# xmcd CD database file
#
# Track frame offsets:
#	150
#	19010
#	42853
#	65843
#	79735
#	101751
#	118535
#	134477
#	151436
#	162735
#	185687
#	214453
#	235508
#
# Disc length: 3551 seconds
#
# Revision: 2
# Processed by: cddbd v1.5PL3 Copyright (c) Steve Scherf et al.
# Submitted via: CDex 1.51
#
DISCID=ba0ddd0d
DTITLE=Various Artist - Wide Open Spaces
DYEAR=1996
DGENRE=New Age
TTITLE0=Tuscany
TTITLE1=Velocity Of Love
TTITLE2=Pachelbel Canon
TTITLE3=Armando's Rhumba
TTITLE4=Meet You Another Time
TTITLE5=Twilight
TTITLE6=Dawn
TTITLE7=While My Guitar Gently Weeps
TTITLE8=Homecoming
TTITLE9=Tender Ritual
TTITLE10=Blue Racer
TTITLE11=Greensleeves
TTITLE12=Wide Open Spaces
EXTD=YEAR: 1996
EXTT0=
EXTT1=
EXTT2=
EXTT3=
EXTT4=
EXTT5=
EXTT6=
EXTT7=
EXTT8=
EXTT9=
EXTT10=
EXTT11=
EXTT12=
PLAYORDER=
